<mxfile host="app.diagrams.net" modified="2022-04-11T14:14:41.325Z" agent="5.0 (Macintosh; Intel Mac OS X 10_15_7) AppleWebKit/537.36 (KHTML, like Gecko) Chrome/100.0.4896.75 Safari/537.36" etag="oiOu5gdj-T0hDPydRAA9" version="17.4.2" type="github">
  <diagram id="k0n_MMMGmZIu3UGHPLsy" name="Page-1">
    <mxGraphModel dx="2066" dy="1154" grid="1" gridSize="10" guides="1" tooltips="1" connect="1" arrows="1" fold="1" page="1" pageScale="1" pageWidth="827" pageHeight="1169" math="0" shadow="0">
      <root>
        <mxCell id="0" />
        <mxCell id="1" parent="0" />
        <mxCell id="C7Pmr9aPiQuWtMCGxncO-1" value="" style="rounded=0;whiteSpace=wrap;html=1;fillColor=#fad7ac;strokeColor=#b46504;" vertex="1" parent="1">
          <mxGeometry x="220" y="240" width="580" height="365" as="geometry" />
        </mxCell>
        <mxCell id="C7Pmr9aPiQuWtMCGxncO-2" value="&lt;font style=&quot;font-size: 18px&quot;&gt;CPU&lt;/font&gt;" style="text;html=1;resizable=0;autosize=1;align=center;verticalAlign=middle;points=[];fillColor=none;strokeColor=none;rounded=0;strokeWidth=6;" vertex="1" parent="1">
          <mxGeometry x="485" y="280" width="50" height="20" as="geometry" />
        </mxCell>
        <mxCell id="C7Pmr9aPiQuWtMCGxncO-6" value="" style="whiteSpace=wrap;html=1;fontSize=18;strokeWidth=1;fillColor=#1ba1e2;strokeColor=#006EAF;fontColor=#ffffff;" vertex="1" parent="1">
          <mxGeometry x="270" y="330" width="200" height="160" as="geometry" />
        </mxCell>
        <mxCell id="C7Pmr9aPiQuWtMCGxncO-9" value="L1 Cache" style="rounded=0;whiteSpace=wrap;html=1;fontSize=18;strokeWidth=1;fillColor=#d5e8d4;strokeColor=#82b366;" vertex="1" parent="1">
          <mxGeometry x="310" y="380" width="120" height="40" as="geometry" />
        </mxCell>
        <mxCell id="C7Pmr9aPiQuWtMCGxncO-11" value="Core 1" style="text;html=1;resizable=0;autosize=1;align=center;verticalAlign=middle;points=[];fillColor=none;strokeColor=none;rounded=0;fontSize=18;" vertex="1" parent="1">
          <mxGeometry x="335" y="340" width="70" height="30" as="geometry" />
        </mxCell>
        <mxCell id="C7Pmr9aPiQuWtMCGxncO-12" value="L2 Cache" style="rounded=0;whiteSpace=wrap;html=1;fontSize=18;strokeWidth=1;fillColor=#d5e8d4;strokeColor=#82b366;" vertex="1" parent="1">
          <mxGeometry x="310" y="430" width="120" height="40" as="geometry" />
        </mxCell>
        <mxCell id="C7Pmr9aPiQuWtMCGxncO-17" value="" style="whiteSpace=wrap;html=1;fontSize=18;strokeWidth=1;fillColor=#1ba1e2;strokeColor=#006EAF;fontColor=#ffffff;" vertex="1" parent="1">
          <mxGeometry x="550" y="330" width="200" height="160" as="geometry" />
        </mxCell>
        <mxCell id="C7Pmr9aPiQuWtMCGxncO-18" value="L1 Cache" style="rounded=0;whiteSpace=wrap;html=1;fontSize=18;strokeWidth=1;fillColor=#d5e8d4;strokeColor=#82b366;" vertex="1" parent="1">
          <mxGeometry x="590" y="380" width="120" height="40" as="geometry" />
        </mxCell>
        <mxCell id="C7Pmr9aPiQuWtMCGxncO-19" value="Core 1" style="text;html=1;resizable=0;autosize=1;align=center;verticalAlign=middle;points=[];fillColor=none;strokeColor=none;rounded=0;fontSize=18;" vertex="1" parent="1">
          <mxGeometry x="615" y="340" width="70" height="30" as="geometry" />
        </mxCell>
        <mxCell id="C7Pmr9aPiQuWtMCGxncO-20" value="L2 Cache" style="rounded=0;whiteSpace=wrap;html=1;fontSize=18;strokeWidth=1;fillColor=#d5e8d4;strokeColor=#82b366;" vertex="1" parent="1">
          <mxGeometry x="590" y="430" width="120" height="40" as="geometry" />
        </mxCell>
        <mxCell id="C7Pmr9aPiQuWtMCGxncO-21" value="L3 Cache" style="rounded=0;whiteSpace=wrap;html=1;fontSize=18;strokeWidth=1;fillColor=#d5e8d4;strokeColor=#82b366;" vertex="1" parent="1">
          <mxGeometry x="270" y="520" width="480" height="60" as="geometry" />
        </mxCell>
        <mxCell id="C7Pmr9aPiQuWtMCGxncO-22" value="总线" style="rounded=0;whiteSpace=wrap;html=1;fontSize=18;strokeWidth=1;fillColor=#cce5ff;strokeColor=#36393d;" vertex="1" parent="1">
          <mxGeometry x="270" y="640" width="480" height="60" as="geometry" />
        </mxCell>
        <mxCell id="C7Pmr9aPiQuWtMCGxncO-23" value="主内存" style="rounded=0;whiteSpace=wrap;html=1;fontSize=18;strokeWidth=1;fillColor=#f8cecc;strokeColor=#b85450;" vertex="1" parent="1">
          <mxGeometry x="270" y="720" width="480" height="60" as="geometry" />
        </mxCell>
      </root>
    </mxGraphModel>
  </diagram>
</mxfile>
